<svg version="1" xmlns="http://www.w3.org/2000/svg" width="400" height="400" viewBox="0 0 300.000000 300.000000"><path d="M136.9 50c-5.2.9-11.7 5-17.5 11.2-11.1 11.8-15.4 30.3-9.3 40.6l1.9 3.4-5 5.5c-9.5 10.4-19.3 25.6-28.6 44.3-6.5 13.2-7.9 18.3-7.9 28.5 0 16.7 5.9 28.7 18.5 37.3 7.6 5.2 8.3 7.4 2.5 8.3-6 .8-10 3.4-13.7 8.6-2.6 3.9-3.3 6-3.6 11.1-.5 7.4.8 11.1 5.4 15.1 2.8 2.5 3.4 3.8 3.9 8.8.7 6.3-1.5 19.5-4.1 24.5-1.3 2.4-1.3 2.8 0 2.8.8 0 1.8-.9 2.1-2 .8-2.7 4.5-2.7 4.5 0 0 1.9.7 2 9.4 2h9.5l-.2-8.8c-.2-9.2 1.4-14.7 4.3-14.7 2.2 0 5 6.4 5 11.5 0 2.5.3 6.2.6 8.3l.7 3.7h93.6l.7-4.5c.3-2.5.4-5.4.1-6.5-1-3.8.3-2 3.2 4.5l3 6.5h23.2l-2.7-4.8c-1.5-2.6-3.1-5.2-3.5-5.7-1.1-1.6-5.9-15.4-7-20.3-.9-4.3-.8-4.7 2-7.6 8.8-9 8.2-23.5-1.2-33.4-4-4.1-12.1-8.2-16.4-8.2-1.8 0-3.3-.3-3.3-.6 0-.4 1.4-2.2 3.1-4.2 7.3-8.3 10.4-19.7 9.6-34.7-1-16.8-6.9-32.9-18.8-51-7.6-11.5-26.5-30-35.2-34.5-6.6-3.4-6.8-3.6-6-6.5.4-1.7.8-7.8.8-13.6 0-10-.2-10.8-3-15.4-4.6-7.4-12.2-10.9-20.6-9.5zm-5.1 9.7c-.3 1.9-5.5 3.6-6.4 2.2-.9-1.6 1.6-3.9 4.3-3.9 1.8 0 2.4.5 2.1 1.7zm-7.3 4.3c.3.6-1.7 3.2-4.4 5.9-5 4.8-6.6 9.1-4.1 10.6 1.5.9 1.2 7.8-.4 10.1-2.4 3.1-4.1.3-4-6.4.1-7 3.5-15.3 7.6-18.7 3.2-2.7 4.4-3 5.3-1.5zm-3.2 12.1c-.7.7-2 .8-3 .5-1.7-.7-1.7-.8.1-2.2 2.3-1.7 4.8-.2 2.9 1.7zM134 79c0 .5-.7 1-1.6 1-.8 0-1.2-.5-.9-1 .3-.6 1-1 1.6-1 .5 0 .9.4.9 1zm27.3 18.6c1.8.9 3.4 1.8 3.5 1.9.2.2-.6 1.7-1.9 3.4l-2.2 3-4.1-2.1c-5.4-2.7-5.3-2.4-2.6-5.3 2.8-3 3.1-3 7.3-.9zm-58.7 23.9c-10.7 16.3-18.8 34.8-21.7 49.5-1.7 8.7-.7 21.5 2.1 27 1.3 2.7 6.8 8.9 13.3 15.2 6.1 5.9 10.8 11 10.4 11.4-.4.4-4.4-1.1-8.9-3.4-10.4-5.1-17.1-11.5-21.2-20.2-2.8-5.9-3.1-7.4-3-16.5.1-11.7 1.7-17.2 9.9-33.6 5.8-11.4 10.7-19.6 16.3-27.2 3.8-5 5.5-6.4 2.8-2.2zm52.4 2.6c6.8 1.5 11 5.6 11 11 0 6.7-3.6 8.1-30.6 11.9-18.5 2.7-27.3 2.4-30.8-.9-2.8-2.6-5.1-8.4-4.2-10.6 1.9-5 17-9.9 35.1-11.3 6.1-.5 11.8-1 12.7-1.1.9 0 4 .4 6.8 1zm-7.6 57.5c1 7.3.7 13.1-.6 14.2-.7.5-2.9 1.2-4.8 1.4l-3.5.3-.3-9.7c-.3-10.5-.3-10.4 5.9-10.7 2.4-.1 2.7.3 3.3 4.5zM137 188c0 9.9 0 10.1-2.1 9-4.5-2.5-7.1-17.3-3.1-18.3 5.2-1.4 5.2-1.4 5.2 9.3zm-34.8 43.9c1.5 9 11.4 15 28 17.1 13.9 1.8 37.2-.5 48.3-4.6 5.1-1.8 10.4-4.5 11-5.4.3-.5 1.5-1.5 2.6-2 1.6-.9 1.9-.7 1.9 1.4 0 2.9-3.8 5.4-13.7 8.9-11.4 4.1-19.5 5.2-37.8 5.1-22.8 0-33.1-2.6-41.3-10.2-3.6-3.4-4.7-6.8-3.8-11.8 1-5.1 3.8-4.2 4.8 1.5zm-15.8 1.3c-.4.7-2.1 3.3-3.8 5.7-2.7 3.7-3.1 5.2-3.1 10.5 0 3.3.4 7.4.8 9.1l.9 3-2.1-2.5c-5.8-7-4.7-15.5 2.7-22.7 4.4-4.4 5.9-5.3 4.6-3.1zm25.2 32.2c.3 1.4.3 3-.1 3.5-1.6 2.7-7.5-.5-7.5-4.1 0-1.4.8-1.8 3.5-1.8 2.8 0 3.6.4 4.1 2.4zm-24.9 8.3c-.3 1-.5.4-.5-1.2 0-1.7.2-2.4.5-1.8.2.7.2 2.1 0 3zm0 5.5c-.3.8-.6.5-.6-.6-.1-1.1.2-1.7.5-1.3.3.3.4 1.2.1 1.9zm3 3.6c-2.2.3-2.7.7-2.2 2.2 1 3.3-.5 9-2.4 9-1.6 0-1.6-.6-.8-5.3.5-2.8 1.1-5.7 1.2-6.3.2-.7 1.6-.9 3.7-.5 3.2.5 3.2.6.5.9z"/><path d="M96 218c0 1.1.7 2 1.5 2s1.5-.9 1.5-2-.7-2-1.5-2-1.5.9-1.5 2z"/></svg>